<svg width="94" height="105" viewBox="0 0 94 105" fill="none" xmlns="http://www.w3.org/2000/svg">
<path d="M9.13252 94.1537L0.710022 0.4375H93.29L84.8563 94.1388L46.9438 104.562L9.13252 94.1537Z" fill="#1572B6"/>
<path d="M47 96.5969L77.6375 88.174L84.845 8.10184H47V96.5969Z" fill="#33A9DC"/>
<path d="M47 42.054H62.3375L63.395 30.2842H47V18.7895H76.0625L75.785 21.8724L72.9387 53.5487H47V42.054Z" fill="white"/>
<path d="M47.0713 71.9044L47.0188 71.9193L34.1113 68.4609L33.2863 59.2942H21.65L23.2738 77.3413L47.015 83.8788L47.0713 83.8639V71.9044Z" fill="#EBEBEB"/>
<path d="M61.3512 53.0615L59.9562 68.4534L47.03 71.9119V83.8714L70.79 77.3412L70.9662 75.4001L72.98 53.0615H61.3512Z" fill="white"/>
<path d="M47.0413 18.7895V30.2842H19.0438L18.8113 27.6996L18.2825 21.8724L18.005 18.7895H47.0413ZM47 42.054V53.5487H34.2538L34.0213 50.9641L33.4963 45.1369L33.2188 42.054H47Z" fill="#EBEBEB"/>
</svg>
