<svg width="94" height="106" viewBox="0 0 94 106" fill="none" xmlns="http://www.w3.org/2000/svg">
<path d="M9.13249 95.0038L0.706238 0.5H93.2937L84.8562 94.9888L46.9437 105.5L9.13249 95.0038Z" fill="#E44F26"/>
<path d="M47 97.4675L77.6375 88.9737L84.845 8.22874H47V97.4675Z" fill="#F1662A"/>
<path d="M47 43.2763H31.6625L30.605 31.4075H47V19.8163H17.9375L18.215 22.9288L21.0613 54.8675H47V43.2763ZM47 73.3775L46.9475 73.3925L34.04 69.9088L33.215 60.665H21.5787L23.2025 78.86L46.9475 85.4525L47 85.4375V73.3775Z" fill="#EBEBEB"/>
<path d="M46.9587 43.2763V54.8675H61.2312L59.8887 69.9013L46.9587 73.3888V85.4488L70.7225 78.86L70.895 76.9025L73.6175 46.3888L73.9025 43.2763H46.9587ZM46.9587 19.8163V31.4075H74.9562L75.1887 28.805L75.7175 22.9288L75.995 19.8163H46.9587Z" fill="white"/>
</svg>
