<svg width="98" height="98" viewBox="0 0 98 98" fill="none" xmlns="http://www.w3.org/2000/svg">
<path d="M94.535 10.605L74.354 0.888988C73.2143 0.339481 71.9319 0.158144 70.6846 0.370113C69.4372 0.582082 68.2867 1.17686 67.3925 2.07199L1.33 62.3C0.52847 63.0273 0.0486763 64.0432 -0.00383359 65.1243C-0.0563435 66.2053 0.322731 67.2629 1.05 68.0645C1.1375 68.159 1.225 68.25 1.3195 68.334L6.713 73.234C7.41777 73.8754 8.32495 74.2497 9.27698 74.2919C10.229 74.3341 11.1657 74.0416 11.9245 73.465L91.497 13.125C92.098 12.6689 92.8144 12.3897 93.5656 12.3186C94.3167 12.2476 95.0728 12.3877 95.7486 12.7231C96.4245 13.0585 96.9933 13.5758 97.391 14.217C97.7888 14.8581 97.9997 15.5975 98 16.352V16.1175C97.9999 14.9656 97.6747 13.8372 97.0617 12.862C96.4487 11.8868 95.5729 11.1045 94.535 10.605Z" fill="#0065A9"/>
<path d="M94.535 87.395L74.354 97.1145C73.214 97.6625 71.932 97.843 70.685 97.6311C69.438 97.4191 68.2875 96.8253 67.3925 95.9315L1.33 35.7C0.52847 34.9727 0.0486763 33.9568 -0.00383359 32.8758C-0.0563435 31.7947 0.322731 30.7371 1.05 29.9355C1.1375 29.841 1.225 29.75 1.3195 29.666L6.713 24.766C7.41849 24.1219 8.32774 23.7459 9.28212 23.7037C10.2365 23.6615 11.1754 23.9557 11.935 24.535L91.497 84.875C92.098 85.3311 92.8144 85.6104 93.5656 85.6814C94.3167 85.7524 95.0728 85.6123 95.7486 85.2769C96.4245 84.9415 96.9933 84.4242 97.391 83.783C97.7888 83.1419 97.9997 82.4025 98 81.648V81.9C97.9962 83.0488 97.6693 84.1733 97.0565 85.1451C96.4438 86.1168 95.57 86.8965 94.535 87.395Z" fill="#007ACC"/>
<path d="M74.354 97.1145C73.214 97.6625 71.9319 97.8429 70.685 97.631C69.438 97.4191 68.2875 96.8253 67.3925 95.9315C67.8951 96.4276 68.533 96.7642 69.2261 96.8994C69.9192 97.0345 70.6368 96.962 71.289 96.6911C71.9411 96.4201 72.4988 95.9628 72.8921 95.3762C73.2854 94.7897 73.4969 94.1002 73.5 93.394V4.606C73.5006 3.89651 73.2906 3.20281 72.8966 2.61277C72.5026 2.02274 71.9423 1.56291 71.2868 1.29155C70.6313 1.02019 69.9099 0.949495 69.2142 1.08843C68.5184 1.22737 67.8795 1.56968 67.3785 2.072C68.2728 1.1772 69.4231 0.582385 70.6702 0.369827C71.9174 0.157269 73.1997 0.337469 74.34 0.885505L94.5175 10.5875C95.5587 11.0845 96.4381 11.8658 97.0543 12.8412C97.6705 13.8165 97.9983 14.9463 98 16.1V81.9C98.0003 83.0528 97.6748 84.1823 97.0612 85.1582C96.4475 86.1341 95.5706 86.9168 94.5315 87.416L74.354 97.1145Z" fill="#1F9CF0"/>
</svg>
