<svg width="106" height="106" viewBox="0 0 106 106" fill="none" xmlns="http://www.w3.org/2000/svg">
<path d="M0.5 0.5H105.5V105.5H0.5V0.5Z" fill="#F5DE19"/>
<path d="M71.0337 82.5312C71.9284 84.3485 73.3183 85.8759 75.0434 86.9375C76.7684 87.9991 78.7583 88.5515 80.7837 88.5313C84.8712 88.5313 87.485 86.4875 87.485 83.6562C87.485 80.2812 84.8 79.0738 80.3 77.105L77.8325 76.0475C70.7075 73.0138 65.9825 69.215 65.9825 61.1825C65.9825 53.7838 71.6075 48.1475 80.4312 48.1475C83.2876 47.9412 86.1415 48.5805 88.637 49.9856C91.1324 51.3907 93.1589 53.4994 94.4637 56.0488L86.75 60.98C86.2476 59.716 85.3728 58.6345 84.2416 57.879C83.1104 57.1236 81.7763 56.7298 80.4162 56.75C79.8228 56.6906 79.2236 56.7555 78.6566 56.9404C78.0897 57.1254 77.5675 57.4265 77.1233 57.8244C76.6792 58.2224 76.3228 58.7085 76.0768 59.2518C75.8309 59.7951 75.7009 60.3837 75.695 60.98C75.695 63.9388 77.5287 65.1388 81.7625 66.98L84.23 68.0375C92.615 71.6338 97.355 75.2975 97.355 83.5363C97.355 92.42 90.3762 97.2875 81.005 97.2875C77.3536 97.5201 73.713 96.6912 70.5223 94.9005C67.3317 93.1099 64.7274 90.4342 63.0237 87.1963L71.0337 82.5312ZM36.1775 83.3863C37.7262 86.135 39.1362 88.46 42.5262 88.46C45.7662 88.46 47.8137 87.1925 47.8137 82.2612V48.71H57.68V82.3925C57.68 92.6075 51.68 97.2575 42.9462 97.2575C39.8591 97.4263 36.7931 96.6569 34.1513 95.0506C31.5096 93.4442 29.4157 91.0761 28.145 88.2575L36.1775 83.3863Z" fill="black"/>
</svg>
